<?xml version="1.0" encoding="UTF-8" standalone="no"?>
<!DOCTYPE svg PUBLIC "-//W3C//DTD SVG 1.1//EN"
 "http://www.w3.org/Graphics/SVG/1.1/DTD/svg11.dtd">
<!-- Generated by graphviz version 2.40.1 (20161225.0304)
 -->
<!-- Title: %3 Pages: 1 -->
<svg width="590pt" height="332pt"
 viewBox="0.00 0.00 590.07 332.00" xmlns="http://www.w3.org/2000/svg" xmlns:xlink="http://www.w3.org/1999/xlink">
<g id="graph0" class="graph" transform="scale(1 1) rotate(0) translate(4 328)">
<title>%3</title>
<polygon fill="#ffffff" stroke="transparent" points="-4,4 -4,-328 586.075,-328 586.075,4 -4,4"/>
<!-- [root] aws_security_group.subnet&#45;security -->
<g id="node1" class="node">
<title>[root] aws_security_group.subnet&#45;security</title>
<polygon fill="none" stroke="#000000" points="268.7843,-180 56.7843,-180 56.7843,-144 268.7843,-144 268.7843,-180"/>
<text text-anchor="middle" x="162.7843" y="-158.3" font-family="Times,serif" font-size="14.00" fill="#000000">aws_security_group.subnet&#45;security</text>
</g>
<!-- [root] aws_vpc.vpc&#45;example&#45;1 -->
<g id="node4" class="node">
<title>[root] aws_vpc.vpc&#45;example&#45;1</title>
<polygon fill="none" stroke="#000000" points="423.2843,-108 274.2843,-108 274.2843,-72 423.2843,-72 423.2843,-108"/>
<text text-anchor="middle" x="348.7843" y="-86.3" font-family="Times,serif" font-size="14.00" fill="#000000">aws_vpc.vpc&#45;example&#45;1</text>
</g>
<!-- [root] aws_security_group.subnet&#45;security&#45;&gt;[root] aws_vpc.vpc&#45;example&#45;1 -->
<g id="edge1" class="edge">
<title>[root] aws_security_group.subnet&#45;security&#45;&gt;[root] aws_vpc.vpc&#45;example&#45;1</title>
<path fill="none" stroke="#000000" d="M209.72,-143.8314C234.9281,-134.0734 266.1769,-121.977 292.6635,-111.7242"/>
<polygon fill="#000000" stroke="#000000" points="294.124,-114.912 302.1862,-108.038 291.597,-108.384 294.124,-114.912"/>
</g>
<!-- [root] aws_subnet.subnet1 -->
<g id="node2" class="node">
<title>[root] aws_subnet.subnet1</title>
<polygon fill="none" stroke="#000000" points="411.2843,-180 286.2843,-180 286.2843,-144 411.2843,-144 411.2843,-180"/>
<text text-anchor="middle" x="348.7843" y="-158.3" font-family="Times,serif" font-size="14.00" fill="#000000">aws_subnet.subnet1</text>
</g>
<!-- [root] aws_subnet.subnet1&#45;&gt;[root] aws_vpc.vpc&#45;example&#45;1 -->
<g id="edge2" class="edge">
<title>[root] aws_subnet.subnet1&#45;&gt;[root] aws_vpc.vpc&#45;example&#45;1</title>
<path fill="none" stroke="#000000" d="M348.7843,-143.8314C348.7843,-136.131 348.7843,-126.9743 348.7843,-118.4166"/>
<polygon fill="#000000" stroke="#000000" points="352.2844,-118.4132 348.7843,-108.4133 345.2844,-118.4133 352.2844,-118.4132"/>
</g>
<!-- [root] aws_subnet.subnet2 -->
<g id="node3" class="node">
<title>[root] aws_subnet.subnet2</title>
<polygon fill="none" stroke="#000000" points="554.2843,-180 429.2843,-180 429.2843,-144 554.2843,-144 554.2843,-180"/>
<text text-anchor="middle" x="491.7843" y="-158.3" font-family="Times,serif" font-size="14.00" fill="#000000">aws_subnet.subnet2</text>
</g>
<!-- [root] aws_subnet.subnet2&#45;&gt;[root] aws_vpc.vpc&#45;example&#45;1 -->
<g id="edge3" class="edge">
<title>[root] aws_subnet.subnet2&#45;&gt;[root] aws_vpc.vpc&#45;example&#45;1</title>
<path fill="none" stroke="#000000" d="M455.6994,-143.8314C436.9854,-134.4089 413.9411,-122.8062 394.0444,-112.7883"/>
<polygon fill="#000000" stroke="#000000" points="395.3635,-109.5339 384.8577,-108.1628 392.2155,-115.7861 395.3635,-109.5339"/>
</g>
<!-- [root] provider.aws -->
<g id="node5" class="node">
<title>[root] provider.aws</title>
<polygon fill="none" stroke="#000000" points="348.7843,-36 268.8509,-18 348.7843,0 428.7177,-18 348.7843,-36"/>
<text text-anchor="middle" x="348.7843" y="-14.3" font-family="Times,serif" font-size="14.00" fill="#000000">provider.aws</text>
</g>
<!-- [root] aws_vpc.vpc&#45;example&#45;1&#45;&gt;[root] provider.aws -->
<g id="edge4" class="edge">
<title>[root] aws_vpc.vpc&#45;example&#45;1&#45;&gt;[root] provider.aws</title>
<path fill="none" stroke="#000000" d="M348.7843,-71.8314C348.7843,-64.131 348.7843,-54.9743 348.7843,-46.4166"/>
<polygon fill="#000000" stroke="#000000" points="352.2844,-46.4132 348.7843,-36.4133 345.2844,-46.4133 352.2844,-46.4132"/>
</g>
<!-- [root] meta.count&#45;boundary (EachMode fixup) -->
<g id="node6" class="node">
<title>[root] meta.count&#45;boundary (EachMode fixup)</title>
<ellipse fill="none" stroke="#000000" cx="176.7843" cy="-234" rx="176.5689" ry="18"/>
<text text-anchor="middle" x="176.7843" y="-230.3" font-family="Times,serif" font-size="14.00" fill="#000000">[root] meta.count&#45;boundary (EachMode fixup)</text>
</g>
<!-- [root] meta.count&#45;boundary (EachMode fixup)&#45;&gt;[root] aws_security_group.subnet&#45;security -->
<g id="edge5" class="edge">
<title>[root] meta.count&#45;boundary (EachMode fixup)&#45;&gt;[root] aws_security_group.subnet&#45;security</title>
<path fill="none" stroke="#000000" d="M173.2515,-215.8314C171.7542,-208.131 169.9738,-198.9743 168.3098,-190.4166"/>
<polygon fill="#000000" stroke="#000000" points="171.7091,-189.5614 166.3647,-180.4133 164.8378,-190.8975 171.7091,-189.5614"/>
</g>
<!-- [root] meta.count&#45;boundary (EachMode fixup)&#45;&gt;[root] aws_subnet.subnet1 -->
<g id="edge6" class="edge">
<title>[root] meta.count&#45;boundary (EachMode fixup)&#45;&gt;[root] aws_subnet.subnet1</title>
<path fill="none" stroke="#000000" d="M218.8602,-216.3868C242.23,-206.6042 271.5149,-194.3453 296.3631,-183.9437"/>
<polygon fill="#000000" stroke="#000000" points="297.7747,-187.1472 305.6477,-180.0572 295.0717,-180.6901 297.7747,-187.1472"/>
</g>
<!-- [root] meta.count&#45;boundary (EachMode fixup)&#45;&gt;[root] aws_subnet.subnet2 -->
<g id="edge7" class="edge">
<title>[root] meta.count&#45;boundary (EachMode fixup)&#45;&gt;[root] aws_subnet.subnet2</title>
<path fill="none" stroke="#000000" d="M253.0293,-217.7514C298.7675,-207.8574 358.3333,-194.7164 419.2958,-180.3248"/>
<polygon fill="#000000" stroke="#000000" points="420.1661,-183.7156 429.09,-178.0046 418.5524,-176.9041 420.1661,-183.7156"/>
</g>
<!-- [root] provider.aws (close) -->
<g id="node7" class="node">
<title>[root] provider.aws (close)</title>
<ellipse fill="none" stroke="#000000" cx="476.7843" cy="-234" rx="105.0817" ry="18"/>
<text text-anchor="middle" x="476.7843" y="-230.3" font-family="Times,serif" font-size="14.00" fill="#000000">[root] provider.aws (close)</text>
</g>
<!-- [root] provider.aws (close)&#45;&gt;[root] aws_security_group.subnet&#45;security -->
<g id="edge8" class="edge">
<title>[root] provider.aws (close)&#45;&gt;[root] aws_security_group.subnet&#45;security</title>
<path fill="none" stroke="#000000" d="M413.6194,-219.5163C367.0156,-208.8301 302.9879,-194.1486 251.287,-182.2936"/>
<polygon fill="#000000" stroke="#000000" points="251.9817,-178.8621 241.4524,-180.0385 250.4171,-185.6851 251.9817,-178.8621"/>
</g>
<!-- [root] provider.aws (close)&#45;&gt;[root] aws_subnet.subnet1 -->
<g id="edge9" class="edge">
<title>[root] provider.aws (close)&#45;&gt;[root] aws_subnet.subnet1</title>
<path fill="none" stroke="#000000" d="M446.1251,-216.7542C429.2183,-207.2441 408.0046,-195.3114 389.7001,-185.0151"/>
<polygon fill="#000000" stroke="#000000" points="391.4112,-181.962 380.9795,-180.1098 387.9794,-188.063 391.4112,-181.962"/>
</g>
<!-- [root] provider.aws (close)&#45;&gt;[root] aws_subnet.subnet2 -->
<g id="edge10" class="edge">
<title>[root] provider.aws (close)&#45;&gt;[root] aws_subnet.subnet2</title>
<path fill="none" stroke="#000000" d="M480.5694,-215.8314C482.1737,-208.131 484.0813,-198.9743 485.8642,-190.4166"/>
<polygon fill="#000000" stroke="#000000" points="489.335,-190.9169 487.9482,-180.4133 482.4822,-189.4892 489.335,-190.9169"/>
</g>
<!-- [root] root -->
<g id="node8" class="node">
<title>[root] root</title>
<ellipse fill="none" stroke="#000000" cx="326.7843" cy="-306" rx="47.3916" ry="18"/>
<text text-anchor="middle" x="326.7843" y="-302.3" font-family="Times,serif" font-size="14.00" fill="#000000">[root] root</text>
</g>
<!-- [root] root&#45;&gt;[root] meta.count&#45;boundary (EachMode fixup) -->
<g id="edge11" class="edge">
<title>[root] root&#45;&gt;[root] meta.count&#45;boundary (EachMode fixup)</title>
<path fill="none" stroke="#000000" d="M297.1491,-291.7751C275.8752,-281.5636 246.8009,-267.608 222.5569,-255.9708"/>
<polygon fill="#000000" stroke="#000000" points="224.0578,-252.809 213.5279,-251.6369 221.0286,-259.1196 224.0578,-252.809"/>
</g>
<!-- [root] root&#45;&gt;[root] provider.aws (close) -->
<g id="edge12" class="edge">
<title>[root] root&#45;&gt;[root] provider.aws (close)</title>
<path fill="none" stroke="#000000" d="M356.4195,-291.7751C378.072,-281.3819 407.8049,-267.1101 432.3013,-255.3519"/>
<polygon fill="#000000" stroke="#000000" points="433.9049,-258.4645 441.4056,-250.9818 430.8758,-252.1538 433.9049,-258.4645"/>
</g>
</g>
</svg>
